<svg xmlns="http://www.w3.org/2000/svg" viewBox="409.7 15.9 649.5 633.7" role="img" aria-label="Docusign">
  <title>Docusign</title>
  <style>.ds-p{fill:#4C00FF}.ds-r{fill:#FF5252}</style>
  <path class="ds-p" d="M877.4,467.7v165.9c0,8.8-7.1,15.9-15.9,15.9H425.6c-8.8,0-15.9-7.1-15.9-15.9v-436 c0-8.8,7.1-15.9,15.9-15.9h165.8v270.1c0,8.8,7.1,15.9,15.9,15.9L877.4,467.7L877.4,467.7z"/>
  <path class="ds-r" d="M1059.2,233.8c0,139.6-81.3,233.7-181.8,234V292c0-5.1-2-9.9-5.6-13.5l-91.2-91.2 c-3.6-3.6-8.4-5.6-13.5-5.6H591.4V15.9c0-8.8,7.1-15.9,15.9-15.9h246C969.8,0,1059.2,93.9,1059.2,233.8z"/>
  <path d="M871.8,278.5c3.6,3.6,5.6,8.4,5.6,13.5v175.8H607.3c-8.8,0-15.9-7.1-15.9-15.9V181.7h175.8c5.1,0,9.9,2,13.5,5.6 L871.8,278.5z"/>
</svg>
