<!-- DocuSign integration icon — the document + signature glyph that marks
     the DocuSign CTA inside the product ("DocuSign Integration by LCBridge").
     This is NOT the LC Bridge brand logo — that is lcbridge-logo.svg (the
     bridge mark). Drawing kept as-is; do not redraw the glyph. -->
<svg xmlns="http://www.w3.org/2000/svg" viewBox="0 0 24 24" width="180" height="180" role="img" aria-label="DocuSign integration">
  <defs>
    <linearGradient id="ds-g" x1="0" y1="0" x2="1" y2="1">
      <stop offset="0" stop-color="#2A41D8"/>
      <stop offset="1" stop-color="#6938EF"/>
    </linearGradient>
  </defs>
  <rect width="24" height="24" rx="6" fill="url(#ds-g)"/>
  <g fill="none" stroke="#fff" stroke-linecap="round" stroke-linejoin="round">
    <path stroke-width="1.7" d="M14 2.75H6.5A1.5 1.5 0 0 0 5 4.25V19.75A1.5 1.5 0 0 0 6.5 21.25H17.5A1.5 1.5 0 0 0 19 19.75V7.75Z"/>
    <path stroke-width="1.7" d="M14 2.75V7.75H19"/>
    <path stroke-width="2" d="M7.9 15.5c.9-1.9 1.9-1.6 2.3.1c.3 1.3 1 1.3 1.4-.1c.5-1.6 1.6-1.4 2.1.3"/>
    <path stroke-width="1.7" d="M8.2 18.5h7.6"/>
  </g>
</svg>
